<svg xmlns="http://www.w3.org/2000/svg" viewBox="0 0 512 512">
  <defs>
    <linearGradient id="g" x1="0" y1="0" x2="1" y2="1">
      <stop offset="0" stop-color="#F4DE9B"/><stop offset=".55" stop-color="#E2B95C"/><stop offset="1" stop-color="#B9852F"/>
    </linearGradient>
    <radialGradient id="b" cx=".35" cy=".3" r=".8">
      <stop offset="0" stop-color="#fff" stop-opacity=".35"/><stop offset="1" stop-color="#fff" stop-opacity="0"/>
    </radialGradient>
  </defs>
  <rect width="512" height="512" fill="url(#g)"/>
  <rect width="512" height="512" fill="url(#b)"/>
  <g transform="translate(31 6) scale(10)">
    <line x1="10" y1="14" x2="34" y2="24" stroke="#4A3110" stroke-width="2.4" stroke-linecap="round"/>
    <path d="M22 17c4-4 10-4.5 13-2.3-2 2.7-7.6 5-13 2.3z" fill="#5E8F48"/>
    <path d="M22 17c4-4 10-4.5 13-2.3-2 2.7-7.6 5-13 2.3z" fill="#5E8F48" opacity=".7" transform="translate(-2,7) scale(0.85)"/>
    <ellipse cx="19" cy="26" rx="4.3" ry="5.6" fill="#5F6B1E" transform="rotate(-18 19 26)"/>
    <ellipse cx="26" cy="30" rx="4.3" ry="5.6" fill="#6F7E24" transform="rotate(-10 26 30)"/>
    <ellipse cx="16" cy="33" rx="3.8" ry="5" fill="#535E18" transform="rotate(-25 16 33)"/>
    <ellipse cx="17.6" cy="23.6" rx="1.2" ry="1.8" fill="#fff" opacity=".35" transform="rotate(-18 17.6 23.6)"/>
    <ellipse cx="24.6" cy="27.6" rx="1.2" ry="1.8" fill="#fff" opacity=".35" transform="rotate(-10 24.6 27.6)"/>
  </g>
</svg>
